<svg width="140" height="28" viewBox="0 0 155 28" fill="none" xmlns="http://www.w3.org/2000/svg">
<path fill-rule="evenodd" clip-rule="evenodd" d="M44.0264 6.39519C39.236 7.6802 36.2694 12.2966 37.1564 17.0859C37.7497 20.2891 39.5458 22.6461 42.4319 24.0085C47.3433 26.3267 52.9938 24.4533 55.4027 19.7081C56.1248 18.2861 56.207 17.8583 56.2067 15.5267C56.2067 13.451 56.0889 12.6756 55.6213 11.6656C54.398 9.02398 51.8984 7.01309 48.9882 6.3293C47.0439 5.87271 45.9187 5.88748 44.0264 6.39519ZM59.3571 15.513V24.8224H60.9957H62.6341L62.7077 18.5199L62.7812 12.2176L67.4379 18.5131L72.0946 24.8085L73.6697 24.8156L75.2447 24.8224V15.5267V6.23087H73.6061H71.9675L71.8941 12.6463L71.8207 19.0618L67.1587 12.7147L62.4968 6.36758L60.927 6.28555L59.3571 6.20353V15.513ZM79.6275 15.5267V24.8224H86.3387H93.0498V23.3187V21.815H87.9822H82.9146V19.491V17.1671H87.2974H91.6802V15.6634V14.1596H87.2974H82.9146V11.699V9.23833H87.8452H92.7759V7.7346V6.23087H86.2017H79.6275V15.5267ZM96.8847 15.8001V24.8224H101.117C107.073 24.8224 108.898 24.3224 110.419 22.2735C111.223 21.19 111.223 18.6123 110.419 17.5288C109.64 16.4795 108.186 15.5308 107.322 15.5072C106.691 15.4903 106.738 15.4307 107.73 14.99C111.67 13.2399 110.844 8.01238 106.48 7.07843C105.708 6.91302 103.233 6.77769 100.98 6.77769H96.8847V15.8001ZM115.238 15.7686V24.8224H116.059H116.881V21.815V18.8075L120.1 18.8141L123.318 18.8209L125.305 21.8215C127.22 24.7125 127.329 24.8224 128.273 24.8224H129.254L128.317 23.5238C127.802 22.8096 126.803 21.4068 126.098 20.4064L124.815 18.5877L126.084 17.9747C126.947 17.5578 127.605 16.9637 128.143 16.1172C128.83 15.0362 128.934 14.6088 128.934 12.8623C128.934 10.6696 128.618 9.80784 127.383 8.63766C125.889 7.2217 124.808 6.96333 119.826 6.83373L115.238 6.71453V15.7686ZM133.591 15.8001V24.8224H134.412H135.234V15.8001V6.77769H134.412H133.591V15.8001ZM145.21 7.2597C142.658 8.16987 140.64 10.0175 139.565 12.4284C138.682 14.4084 138.752 17.4719 139.726 19.459C142.308 24.7265 148.607 26.3929 153.715 23.1599C154.981 22.3585 155.004 22.3202 154.532 21.7994C154.068 21.2884 154.013 21.2851 153.337 21.7308C151.461 22.9671 150.438 23.2889 148.383 23.2889C146.031 23.2889 144.253 22.5556 142.713 20.9507C139.78 17.8952 140.023 12.6802 143.227 9.94372C145.981 7.59079 150.784 7.54459 153.242 9.84721C153.845 10.4118 153.865 10.4129 154.428 9.9049L155 9.38789L154.365 8.87416C151.971 6.93954 148.048 6.24755 145.21 7.2597ZM106.688 8.68879C108.287 9.41304 108.908 10.7847 108.356 12.3735C108.121 13.0491 107.628 13.6937 107.048 14.0823C106.19 14.6575 105.819 14.7064 102.323 14.7064H98.5283V11.4256V8.14471L102.021 8.15073C104.887 8.15565 105.724 8.25216 106.688 8.68879ZM125.236 8.84408C126.517 9.50162 127.564 11.2785 127.564 12.7926C127.564 14.3972 126.518 16.1164 125.109 16.8253C124.032 17.3675 123.472 17.4405 120.384 17.4405H116.881V12.7658V8.09112L120.511 8.18627C123.512 8.26501 124.33 8.37875 125.236 8.84408ZM49.4095 9.80975C51.937 11.0308 53.3625 13.9702 52.7818 16.7627C51.7111 21.9099 45.4401 23.6085 42.0601 19.6668C39.2549 16.3961 40.2785 11.5527 44.1543 9.7578C45.6535 9.06335 47.9114 9.08577 49.4095 9.80975ZM107.568 16.7679C110.018 18.185 109.979 21.5017 107.497 22.823C106.805 23.191 105.716 23.3198 102.569 23.4054L98.5283 23.515V19.7644V16.0139L102.569 16.1137C106.015 16.1984 106.75 16.2947 107.568 16.7679Z" fill="white"/>
<g clip-path="url(#clip0_293_2486)">
<path d="M0 11.6627L8.25728 16L27 6" stroke="#D4C4AF" stroke-width="2.5" stroke-linecap="square"/>
<path d="M0 16.6627L8.25728 21L27 11" stroke="#E0BC82" stroke-width="2.5" stroke-linecap="square"/>
<path d="M0 21.6627L8.25728 26L27 16" stroke="#E1A845" stroke-width="2.5" stroke-linecap="square"/>
</g>
<defs>
<clipPath id="clip0_293_2486">
<rect width="27" height="28" fill="white"/>
</clipPath>
</defs>
</svg>
